<mxfile host="app.diagrams.net" modified="2022-03-10T16:21:06.558Z" agent="5.0 (Windows NT 10.0; Win64; x64) AppleWebKit/537.36 (KHTML, like Gecko) Chrome/99.0.4844.51 Safari/537.36" etag="CxwH104lhmWCYk-fRXNE" version="16.6.7" type="github">
  <diagram id="6Z_6h064yBWhbcH0zwfP" name="Page-1">
    <mxGraphModel dx="1485" dy="1420" grid="0" gridSize="10" guides="1" tooltips="1" connect="1" arrows="1" fold="1" page="0" pageScale="1" pageWidth="827" pageHeight="1169" math="0" shadow="0">
      <root>
        <mxCell id="0" />
        <mxCell id="1" parent="0" />
        <mxCell id="jCru8n2d40QjCa9XTFNG-3" value="" style="edgeStyle=none;curved=1;rounded=0;orthogonalLoop=1;jettySize=auto;html=1;endArrow=open;startSize=14;endSize=14;sourcePerimeterSpacing=8;targetPerimeterSpacing=8;" edge="1" parent="1" source="jCru8n2d40QjCa9XTFNG-1" target="jCru8n2d40QjCa9XTFNG-2">
          <mxGeometry relative="1" as="geometry" />
        </mxCell>
        <mxCell id="jCru8n2d40QjCa9XTFNG-62" style="edgeStyle=none;curved=1;rounded=0;orthogonalLoop=1;jettySize=auto;html=1;entryX=0.5;entryY=0;entryDx=0;entryDy=0;fontSize=16;endArrow=open;startSize=14;endSize=14;sourcePerimeterSpacing=8;targetPerimeterSpacing=8;" edge="1" parent="1" target="jCru8n2d40QjCa9XTFNG-55">
          <mxGeometry relative="1" as="geometry">
            <mxPoint x="12" y="40" as="sourcePoint" />
            <Array as="points">
              <mxPoint x="121" y="40" />
            </Array>
          </mxGeometry>
        </mxCell>
        <mxCell id="jCru8n2d40QjCa9XTFNG-1" value="&lt;span style=&quot;color: rgb(0 , 0 , 0) ; font-family: &amp;#34;helvetica&amp;#34; ; font-size: 16px ; font-style: normal ; font-weight: 400 ; letter-spacing: normal ; text-align: center ; text-indent: 0px ; text-transform: none ; word-spacing: 0px ; background-color: rgb(255 , 255 , 255) ; display: inline ; float: none&quot;&gt;bolsas == bolsas_x&lt;/span&gt;" style="rounded=0;whiteSpace=wrap;html=1;hachureGap=4;" vertex="1" parent="1">
          <mxGeometry x="-118" y="-17" width="120" height="60" as="geometry" />
        </mxCell>
        <mxCell id="jCru8n2d40QjCa9XTFNG-2" value="iniciar_arrastre" style="whiteSpace=wrap;html=1;hachureGap=4;" vertex="1" parent="1">
          <mxGeometry x="-118" y="110" width="120" height="60" as="geometry" />
        </mxCell>
        <mxCell id="jCru8n2d40QjCa9XTFNG-82" style="edgeStyle=none;curved=1;rounded=0;orthogonalLoop=1;jettySize=auto;html=1;fontSize=16;endArrow=open;startSize=14;endSize=14;sourcePerimeterSpacing=8;targetPerimeterSpacing=8;" edge="1" parent="1" source="jCru8n2d40QjCa9XTFNG-8" target="jCru8n2d40QjCa9XTFNG-46">
          <mxGeometry relative="1" as="geometry" />
        </mxCell>
        <mxCell id="jCru8n2d40QjCa9XTFNG-8" value="detener_arrastre" style="whiteSpace=wrap;html=1;hachureGap=4;" vertex="1" parent="1">
          <mxGeometry x="-118" y="295" width="120" height="60" as="geometry" />
        </mxCell>
        <mxCell id="jCru8n2d40QjCa9XTFNG-11" value="sensor_B_rollo == TRUE" style="whiteSpace=wrap;html=1;hachureGap=4;fillColor=#60a917;strokeColor=#2D7600;fontColor=#ffffff;" vertex="1" parent="1">
          <mxGeometry x="-118" y="202" width="120" height="60" as="geometry" />
        </mxCell>
        <mxCell id="jCru8n2d40QjCa9XTFNG-25" value="" style="edgeStyle=none;curved=1;rounded=0;orthogonalLoop=1;jettySize=auto;html=1;endArrow=open;startSize=14;endSize=14;sourcePerimeterSpacing=8;targetPerimeterSpacing=8;" edge="1" parent="1" source="jCru8n2d40QjCa9XTFNG-22" target="jCru8n2d40QjCa9XTFNG-24">
          <mxGeometry relative="1" as="geometry" />
        </mxCell>
        <mxCell id="jCru8n2d40QjCa9XTFNG-36" value="&lt;font size=&quot;1&quot;&gt;&lt;b style=&quot;line-height: 0.6 ; font-size: 16px&quot;&gt;ELSE:&lt;/b&gt;&lt;/font&gt;" style="edgeStyle=none;curved=1;rounded=0;orthogonalLoop=1;jettySize=auto;html=1;endArrow=open;startSize=14;endSize=14;sourcePerimeterSpacing=8;targetPerimeterSpacing=8;align=right;" edge="1" parent="1" source="jCru8n2d40QjCa9XTFNG-22" target="jCru8n2d40QjCa9XTFNG-1">
          <mxGeometry relative="1" as="geometry" />
        </mxCell>
        <mxCell id="jCru8n2d40QjCa9XTFNG-22" value="sensor_A_rollo == FALSE" style="rounded=0;whiteSpace=wrap;html=1;hachureGap=4;fillColor=#e51400;strokeColor=#B20000;fontColor=#ffffff;" vertex="1" parent="1">
          <mxGeometry x="-118" y="-131" width="120" height="60" as="geometry" />
        </mxCell>
        <mxCell id="jCru8n2d40QjCa9XTFNG-27" value="" style="edgeStyle=none;curved=1;rounded=0;orthogonalLoop=1;jettySize=auto;html=1;endArrow=open;startSize=14;endSize=14;sourcePerimeterSpacing=8;targetPerimeterSpacing=8;" edge="1" parent="1" source="jCru8n2d40QjCa9XTFNG-24" target="jCru8n2d40QjCa9XTFNG-26">
          <mxGeometry relative="1" as="geometry" />
        </mxCell>
        <mxCell id="jCru8n2d40QjCa9XTFNG-24" value="iniciar_rollo" style="rounded=0;whiteSpace=wrap;html=1;hachureGap=4;" vertex="1" parent="1">
          <mxGeometry x="60" y="-131" width="120" height="60" as="geometry" />
        </mxCell>
        <mxCell id="jCru8n2d40QjCa9XTFNG-31" value="" style="edgeStyle=none;curved=1;rounded=0;orthogonalLoop=1;jettySize=auto;html=1;endArrow=open;startSize=14;endSize=14;sourcePerimeterSpacing=8;targetPerimeterSpacing=8;" edge="1" parent="1" source="jCru8n2d40QjCa9XTFNG-26" target="jCru8n2d40QjCa9XTFNG-30">
          <mxGeometry relative="1" as="geometry" />
        </mxCell>
        <mxCell id="jCru8n2d40QjCa9XTFNG-26" value="sensor_A_rollo == TRUE" style="whiteSpace=wrap;html=1;hachureGap=4;fillColor=#60a917;strokeColor=#2D7600;fontColor=#ffffff;" vertex="1" parent="1">
          <mxGeometry x="239" y="-131" width="120" height="60" as="geometry" />
        </mxCell>
        <mxCell id="jCru8n2d40QjCa9XTFNG-61" style="edgeStyle=none;curved=1;rounded=0;orthogonalLoop=1;jettySize=auto;html=1;entryX=1;entryY=0.5;entryDx=0;entryDy=0;fontSize=16;endArrow=open;startSize=14;endSize=14;sourcePerimeterSpacing=8;targetPerimeterSpacing=8;" edge="1" parent="1" target="jCru8n2d40QjCa9XTFNG-1">
          <mxGeometry relative="1" as="geometry">
            <mxPoint x="478" y="-69" as="sourcePoint" />
            <Array as="points">
              <mxPoint x="478" y="-21" />
              <mxPoint x="300" y="2" />
            </Array>
          </mxGeometry>
        </mxCell>
        <mxCell id="jCru8n2d40QjCa9XTFNG-30" value="detener_rollo" style="whiteSpace=wrap;html=1;hachureGap=4;" vertex="1" parent="1">
          <mxGeometry x="418" y="-131" width="120" height="60" as="geometry" />
        </mxCell>
        <mxCell id="jCru8n2d40QjCa9XTFNG-44" style="edgeStyle=none;curved=1;rounded=0;orthogonalLoop=1;jettySize=auto;html=1;fontSize=16;endArrow=open;startSize=14;endSize=14;sourcePerimeterSpacing=8;targetPerimeterSpacing=8;" edge="1" parent="1" source="jCru8n2d40QjCa9XTFNG-40" target="jCru8n2d40QjCa9XTFNG-42">
          <mxGeometry relative="1" as="geometry" />
        </mxCell>
        <mxCell id="jCru8n2d40QjCa9XTFNG-40" value="START:&lt;br&gt;bolsas = 0&lt;br&gt;ciclo_loop = False&lt;br&gt;" style="whiteSpace=wrap;html=1;hachureGap=4;fontSize=16;align=left;spacingLeft=15;verticalAlign=top;" vertex="1" parent="1">
          <mxGeometry x="-181" y="-424.15" width="266" height="168.15" as="geometry" />
        </mxCell>
        <mxCell id="jCru8n2d40QjCa9XTFNG-43" style="edgeStyle=none;curved=1;rounded=0;orthogonalLoop=1;jettySize=auto;html=1;entryX=0.5;entryY=0;entryDx=0;entryDy=0;fontSize=16;endArrow=open;startSize=14;endSize=14;sourcePerimeterSpacing=8;targetPerimeterSpacing=8;" edge="1" parent="1" source="jCru8n2d40QjCa9XTFNG-42" target="jCru8n2d40QjCa9XTFNG-22">
          <mxGeometry relative="1" as="geometry" />
        </mxCell>
        <mxCell id="jCru8n2d40QjCa9XTFNG-42" value="CICLO_LOOP:" style="whiteSpace=wrap;html=1;hachureGap=4;fontSize=16;" vertex="1" parent="1">
          <mxGeometry x="-118" y="-223" width="120" height="60" as="geometry" />
        </mxCell>
        <mxCell id="jCru8n2d40QjCa9XTFNG-84" style="edgeStyle=none;curved=1;rounded=0;orthogonalLoop=1;jettySize=auto;html=1;fontSize=16;endArrow=open;startSize=14;endSize=14;sourcePerimeterSpacing=8;targetPerimeterSpacing=8;" edge="1" parent="1" source="jCru8n2d40QjCa9XTFNG-46" target="jCru8n2d40QjCa9XTFNG-72">
          <mxGeometry relative="1" as="geometry" />
        </mxCell>
        <mxCell id="jCru8n2d40QjCa9XTFNG-46" value="sellado_horizontal_corte" style="whiteSpace=wrap;html=1;hachureGap=4;fontSize=16;" vertex="1" parent="1">
          <mxGeometry x="-149" y="390" width="182" height="60" as="geometry" />
        </mxCell>
        <mxCell id="jCru8n2d40QjCa9XTFNG-70" value="" style="edgeStyle=none;curved=1;rounded=0;orthogonalLoop=1;jettySize=auto;html=1;fontSize=16;endArrow=open;startSize=14;endSize=14;sourcePerimeterSpacing=8;targetPerimeterSpacing=8;" edge="1" parent="1" source="jCru8n2d40QjCa9XTFNG-55" target="jCru8n2d40QjCa9XTFNG-69">
          <mxGeometry relative="1" as="geometry" />
        </mxCell>
        <mxCell id="jCru8n2d40QjCa9XTFNG-55" value="sellado_vertical" style="whiteSpace=wrap;html=1;hachureGap=4;fontSize=16;" vertex="1" parent="1">
          <mxGeometry x="61" y="110" width="120" height="60" as="geometry" />
        </mxCell>
        <mxCell id="jCru8n2d40QjCa9XTFNG-63" value="&lt;b&gt;ELSE&lt;/b&gt;:" style="text;html=1;align=center;verticalAlign=middle;resizable=0;points=[];autosize=1;strokeColor=none;fillColor=none;hachureGap=4;fontSize=16;" vertex="1" parent="1">
          <mxGeometry x="-113" y="61" width="57" height="23" as="geometry" />
        </mxCell>
        <mxCell id="jCru8n2d40QjCa9XTFNG-69" value="finalizar_ciclo" style="whiteSpace=wrap;html=1;hachureGap=4;fontSize=16;fillColor=#e51400;fontColor=#ffffff;strokeColor=#B20000;" vertex="1" parent="1">
          <mxGeometry x="239" y="110" width="120" height="60" as="geometry" />
        </mxCell>
        <mxCell id="jCru8n2d40QjCa9XTFNG-72" value="bolsa = bolsa +1" style="whiteSpace=wrap;html=1;hachureGap=4;fontSize=16;" vertex="1" parent="1">
          <mxGeometry x="-140" y="485" width="164" height="60" as="geometry" />
        </mxCell>
        <mxCell id="jCru8n2d40QjCa9XTFNG-86" style="edgeStyle=none;curved=1;rounded=0;orthogonalLoop=1;jettySize=auto;html=1;entryX=0.5;entryY=0;entryDx=0;entryDy=0;fontSize=16;endArrow=open;startSize=14;endSize=14;sourcePerimeterSpacing=8;targetPerimeterSpacing=8;" edge="1" parent="1" target="jCru8n2d40QjCa9XTFNG-8">
          <mxGeometry relative="1" as="geometry">
            <mxPoint x="-58.00000000000023" y="270" as="sourcePoint" />
          </mxGeometry>
        </mxCell>
        <mxCell id="jCru8n2d40QjCa9XTFNG-76" value="iniciar_arrastre" style="whiteSpace=wrap;html=1;hachureGap=4;" vertex="1" parent="1">
          <mxGeometry x="-118" y="110" width="120" height="60" as="geometry" />
        </mxCell>
        <mxCell id="jCru8n2d40QjCa9XTFNG-87" style="edgeStyle=none;curved=1;rounded=0;orthogonalLoop=1;jettySize=auto;html=1;entryX=0.5;entryY=0;entryDx=0;entryDy=0;fontSize=16;endArrow=open;startSize=14;endSize=14;sourcePerimeterSpacing=8;targetPerimeterSpacing=8;" edge="1" parent="1" source="jCru8n2d40QjCa9XTFNG-78" target="jCru8n2d40QjCa9XTFNG-11">
          <mxGeometry relative="1" as="geometry" />
        </mxCell>
        <mxCell id="jCru8n2d40QjCa9XTFNG-78" value="iniciar_arrastre" style="whiteSpace=wrap;html=1;hachureGap=4;" vertex="1" parent="1">
          <mxGeometry x="-118" y="110" width="120" height="60" as="geometry" />
        </mxCell>
        <mxCell id="jCru8n2d40QjCa9XTFNG-79" value="sensor_A_rollo == FALSE" style="rounded=0;whiteSpace=wrap;html=1;hachureGap=4;fillColor=#e51400;strokeColor=#B20000;fontColor=#ffffff;" vertex="1" parent="1">
          <mxGeometry x="-118" y="-131" width="120" height="60" as="geometry" />
        </mxCell>
        <mxCell id="jCru8n2d40QjCa9XTFNG-80" value="LOOP:" style="whiteSpace=wrap;html=1;hachureGap=4;fontSize=16;" vertex="1" parent="1">
          <mxGeometry x="-118" y="-223" width="120" height="60" as="geometry" />
        </mxCell>
      </root>
    </mxGraphModel>
  </diagram>
</mxfile>
